<svg aria-hidden="true" style="position: absolute; width: 0; height: 0; overflow: hidden;" version="1.1" xmlns="http://www.w3.org/2000/svg" xmlns:xlink="http://www.w3.org/1999/xlink">
<defs>
<symbol id="icon-mail" viewBox="0 0 43 32">
<path  d="M38.667 0h-34.667c-2.206 0-4 1.794-4 3.999v23.992c0 2.205 1.794 3.999 4 3.999h34.667c2.206 0 4-1.794 4-3.999v-23.992c0-2.205-1.794-3.999-4-3.999zM38.667 2.666c0.181 0 0.353 0.038 0.511 0.103l-17.844 15.46-17.844-15.46c0.158-0.066 0.33-0.103 0.511-0.103h34.667zM38.667 29.323h-34.667c-0.736 0-1.333-0.597-1.333-1.333v-22.405l17.793 15.415c0.251 0.217 0.563 0.325 0.874 0.325s0.622-0.108 0.874-0.325l17.793-15.415v22.405c0 0.735-0.598 1.333-1.333 1.333z"></path>
</symbol>
<symbol id="icon-phone" viewBox="0 0 32 32">
<path d="M22 20c-2 2-2 4-4 4s-4-2-6-4-4-4-4-6 2-2 4-4-4-8-6-8-6 6-6 6c0 4 4.109 12.109 8 16s12 8 16 8c0 0 6-4 6-6s-6-8-8-6z"></path>
</symbol>
<symbol id="icon-location" viewBox="0 0 32 32">
<path d="M16 0c-5.523 0-10 4.477-10 10 0 10 10 22 10 22s10-12 10-22c0-5.523-4.477-10-10-10zM16 16.125c-3.383 0-6.125-2.742-6.125-6.125s2.742-6.125 6.125-6.125 6.125 2.742 6.125 6.125-2.742 6.125-6.125 6.125zM12.125 10c0-2.14 1.735-3.875 3.875-3.875s3.875 1.735 3.875 3.875c0 2.14-1.735 3.875-3.875 3.875s-3.875-1.735-3.875-3.875z"></path>
</symbol>
</defs>
</svg>
